<svg xmlns="http://www.w3.org/2000/svg" width="95.071" height="113.023" viewBox="0 0 95.071 113.023">
  <g id="Group_79" data-name="Group 79" transform="translate(-1230.157 -324.734)">
    <g id="Group_4" data-name="Group 4" transform="translate(1267.461 320.996) rotate(30)">
      <path id="Path_1" data-name="Path 1" d="M27.109,0C42.028-.06,54.08,13.661,54.028,30.646S41.838,61.45,26.919,61.51-.052,47.849,0,30.864,12.19.06,27.109,0Z" transform="translate(68.738 70.194) rotate(180)" fill="#0d0d0d"/>
      <path id="Path_2" data-name="Path 2" d="M22.045,0A21.782,21.782,0,0,1,43.936,21.89,22.156,22.156,0,0,1,21.891,43.935,21.782,21.782,0,0,1,0,22.045,22.156,22.156,0,0,1,22.045,0Z" transform="translate(89.383 83.219) rotate(180)" fill="#f27405"/>
      <path id="Path_3" data-name="Path 3" d="M19.106,0A18.878,18.878,0,0,1,38.078,18.972,19.2,19.2,0,0,1,18.972,38.077,18.878,18.878,0,0,1,0,19.106,19.2,19.2,0,0,1,19.106,0Z" transform="translate(38.078 74.609) rotate(180)" fill="#f2b33d"/>
      <path id="Path_4" data-name="Path 4" d="M15.432,0A15.247,15.247,0,0,1,30.755,15.323,15.509,15.509,0,0,1,15.324,30.755,15.247,15.247,0,0,1,0,15.432,15.509,15.509,0,0,1,15.432,0Z" transform="translate(38.231 30.755) rotate(180)" fill="#f2c230"/>
    </g>
  </g>
</svg>
